<svg id="Capa_1" enable-background="new 0 0 511.979 511.979" height="512" viewBox="0 0 511.979 511.979" width="512" xmlns="http://www.w3.org/2000/svg"><path d="m505.683 45.874-39.578-39.579c-4.06-4.059-9.457-6.295-15.198-6.295s-11.138 2.236-15.198 6.295l-106.862 106.862-222.3 222.3c-2.929 2.929-2.929 7.678 0 10.606 1.464 1.464 3.384 2.197 5.303 2.197s3.839-.732 5.303-2.197l216.997-216.996 48.761 48.761-120.325 120.326c-2.114-6.839-8.322-11.427-15.491-11.427-7.208 0-13.449 4.637-15.529 11.539-4.413 14.643-15.79 26.019-30.432 30.432-6.901 2.08-11.538 8.321-11.538 15.529 0 7.169 4.588 13.377 11.427 15.491l-128.223 128.222c-12.061 12.059-31.687 12.061-43.748 0l-5.014-5.014c-12.061-12.061-12.061-31.687 0-43.748l73.316-73.315c2.929-2.929 2.929-7.678 0-10.606-2.929-2.93-7.678-2.929-10.606 0l-73.316 73.315c-17.909 17.91-17.909 47.051 0 64.96l5.014 5.014c8.955 8.955 20.717 13.432 32.48 13.432s23.526-4.478 32.48-13.432l131.736-131.736c7.734 5.742 13.555 13.862 16.423 23.377 2.08 6.902 8.321 11.539 15.529 11.539s13.449-4.637 15.53-11.539c4.413-14.642 15.789-26.019 30.431-30.432 6.902-2.08 11.539-8.321 11.539-15.529s-4.637-13.449-11.539-15.529c-9.515-2.868-17.635-8.689-23.378-16.423l129.143-129.143 50.396-50.395c2.929-2.929 2.929-7.678 0-10.606-2.928-2.929-7.677-2.929-10.606 0l-45.092 45.092-48.761-48.761 101.558-101.559c1.227-1.227 2.857-1.902 4.591-1.902s3.365.675 4.591 1.902l39.579 39.579c1.227 1.226 1.902 2.856 1.902 4.591s-.675 3.365-1.902 4.591l-35.384 35.384c-2.929 2.929-2.929 7.678 0 10.606 2.929 2.929 7.678 2.929 10.606 0l35.384-35.384c4.06-4.06 6.295-9.457 6.295-15.198.001-5.74-2.234-11.138-6.294-15.197zm-216.956 297.186c.281.084.867.261.867 1.167s-.586 1.083-.868 1.167c-19.47 5.868-34.597 20.996-40.464 40.465-.085.282-.262.868-1.168.868s-1.083-.586-1.167-.868c-5.868-19.469-20.996-34.597-40.465-40.465-.282-.084-.867-.261-.867-1.167s.585-1.083.867-1.167c19.469-5.868 34.597-20.996 40.465-40.465.084-.281.261-.867 1.167-.867s1.083.586 1.167.867c5.869 19.468 20.996 34.596 40.466 40.465z"/><path d="m133.174 107.617c18.906 5.698 33.595 20.387 39.294 39.294 2.36 7.829 9.439 13.089 17.616 13.089s15.256-5.26 17.616-13.089c5.699-18.907 20.388-33.596 39.295-39.294 7.829-2.36 13.089-9.439 13.089-17.616s-5.26-15.256-13.09-17.617c-18.906-5.698-33.596-20.387-39.294-39.293-2.36-7.83-9.439-13.09-17.616-13.09s-15.256 5.26-17.616 13.089c-5.699 18.907-20.388 33.596-39.294 39.294-7.829 2.359-13.089 9.439-13.089 17.616s5.26 15.257 13.089 17.617zm4.328-20.871c23.734-7.153 42.174-25.593 49.327-49.327.634-2.104 2.312-2.418 3.255-2.418s2.62.314 3.254 2.418c7.153 23.734 25.594 42.174 49.327 49.327 2.104.634 2.418 2.312 2.418 3.255s-.314 2.621-2.418 3.254c-23.734 7.153-42.174 25.593-49.328 49.328-.634 2.104-2.311 2.418-3.254 2.418s-2.621-.314-3.255-2.418c-7.153-23.734-25.593-42.174-49.327-49.327-2.104-.635-2.418-2.312-2.418-3.255s.315-2.621 2.419-3.255z"/><path d="m87.603 232.5h9.875v9.875c0 4.142 3.358 7.5 7.5 7.5s7.5-3.358 7.5-7.5v-9.875h9.875c4.142 0 7.5-3.358 7.5-7.5s-3.358-7.5-7.5-7.5h-9.875v-9.875c0-4.142-3.358-7.5-7.5-7.5s-7.5 3.358-7.5 7.5v9.875h-9.875c-4.142 0-7.5 3.358-7.5 7.5s3.358 7.5 7.5 7.5z"/><path d="m436.689 282.976h-9.875v-9.875c0-4.142-3.358-7.5-7.5-7.5s-7.5 3.358-7.5 7.5v9.875h-9.875c-4.142 0-7.5 3.358-7.5 7.5s3.358 7.5 7.5 7.5h9.875v9.875c0 4.142 3.358 7.5 7.5 7.5s7.5-3.358 7.5-7.5v-9.875h9.875c4.142 0 7.5-3.358 7.5-7.5s-3.358-7.5-7.5-7.5z"/></svg>